<svg width="702" height="645" viewBox="0 0 702 645" fill="none" xmlns="http://www.w3.org/2000/svg">
<g filter="url(#filter0_d)">
<path fill-rule="evenodd" clip-rule="evenodd" d="M432.35 557.245C385.505 587.813 337.731 505.51 283.6 492.432C219.5 476.946 115.753 534.377 90.8184 474.735C63.2819 408.87 189.415 364.222 200.374 293.362C209.173 236.469 112.682 185.14 143.257 135.68C172.29 88.7124 252.905 139.373 306.13 122.282C362.245 104.264 396.408 30.6723 454.929 35.6025C513.496 40.5364 552.664 97.1931 583.655 145.663C613.815 192.832 652.71 253.505 626.239 303.528C597.866 357.144 498.621 327.855 461.625 376.268C423.11 426.666 485.863 522.327 432.35 557.245Z" fill="#49858F"/>
</g>
<defs>
<filter id="filter0_d" x="-0.00012207" y="-4.57764e-05" width="701.446" height="644.184" filterUnits="userSpaceOnUse" color-interpolation-filters="sRGB">
<feFlood flood-opacity="0" result="BackgroundImageFix"/>
<feColorMatrix in="SourceAlpha" type="matrix" values="0 0 0 0 0 0 0 0 0 0 0 0 0 0 0 0 0 0 127 0"/>
<feOffset/>
<feColorMatrix type="matrix" values="0 0 0 0 0 0 0 0 0 0 0 0 0 0 0 0 0 0 0.25 0"/>
<feBlend mode="normal" in2="BackgroundImageFix" result="effect1_dropShadow"/>
<feBlend mode="normal" in="SourceGraphic" in2="effect1_dropShadow" result="shape"/>
</filter>
</defs>
</svg>
